<svg xmlns="http://www.w3.org/2000/svg" viewBox="0 0 280 80" width="280" height="80">
  <defs>
    <linearGradient id="bg2" x1="0%" y1="0%" x2="100%" y2="100%">
      <stop offset="0%" stop-color="#1A3A6B"/>
      <stop offset="100%" stop-color="#0A1628"/>
    </linearGradient>
    <linearGradient id="bolt2" x1="0%" y1="0%" x2="0%" y2="100%">
      <stop offset="0%" stop-color="#FBBF24"/>
      <stop offset="100%" stop-color="#F59E0B"/>
    </linearGradient>
    <filter id="glow2" x="-20%" y="-20%" width="140%" height="140%">
      <feGaussianBlur in="SourceGraphic" stdDeviation="1.2" result="blur"/>
      <feMerge>
        <feMergeNode in="blur"/>
        <feMergeNode in="SourceGraphic"/>
      </feMerge>
    </filter>
  </defs>
  <rect x="0" y="9" width="62" height="62" rx="14" fill="url(#bg2)"/>
  <rect x="1" y="10" width="60" height="60" rx="13.5" fill="none" stroke="rgba(255,255,255,0.07)" stroke-width="1"/>
  <rect x="12" y="18" width="9" height="42" rx="2" fill="white" opacity="0.95"/>
  <rect x="12" y="18" width="26" height="9" rx="2" fill="white" opacity="0.95"/>
  <rect x="12" y="31" width="19" height="8" rx="2" fill="rgba(255,255,255,0.55)"/>
  <polygon points="40,17 33,33 40,31 31,51 49,28 40,30" fill="url(#bolt2)" filter="url(#glow2)"/>
  <circle cx="50" cy="53" r="4" fill="#3B82F6" opacity="0.85"/>
  <circle cx="50" cy="53" r="2" fill="#BFDBFE"/>
  <text x="78" y="52" font-family="'Inter', 'Helvetica Neue', Arial, sans-serif" font-weight="800" font-size="34" letter-spacing="-1" fill="#0F2340">Fl</text>
  <text x="118" y="52" font-family="'Inter', 'Helvetica Neue', Arial, sans-serif" font-weight="800" font-size="34" letter-spacing="-1" fill="#1D4ED8">ox</text>
  <text x="169" y="52" font-family="'Inter', 'Helvetica Neue', Arial, sans-serif" font-weight="800" font-size="34" letter-spacing="-1" fill="#0F2340">ia</text>
  <circle cx="80" cy="64" r="2" fill="#F59E0B"/>
  <text x="87" y="67.5" font-family="'Inter', 'Helvetica Neue', Arial, sans-serif" font-weight="500" font-size="9" letter-spacing="2.5" fill="#64748B">GESTION ARTISANS</text>
</svg>